<?xml version="1.0" encoding="UTF-8" standalone="no"?>
<!-- Created with Inkscape (http://www.inkscape.org/) -->

<svg
   width="264.58337mm"
   height="264.58337mm"
   viewBox="0 0 264.58338 264.58337"
   version="1.1"
   id="svg8761"
   xml:space="preserve"
   sodipodi:docname="tile-dark.svg"
   inkscape:version="1.3.2 (091e20e, 2023-11-25, custom)"
   xmlns:inkscape="http://www.inkscape.org/namespaces/inkscape"
   xmlns:sodipodi="http://sodipodi.sourceforge.net/DTD/sodipodi-0.dtd"
   xmlns:xlink="http://www.w3.org/1999/xlink"
   xmlns="http://www.w3.org/2000/svg"
   xmlns:svg="http://www.w3.org/2000/svg"
   xmlns:rdf="http://www.w3.org/1999/02/22-rdf-syntax-ns#"
   xmlns:cc="http://creativecommons.org/ns#"
   xmlns:dc="http://purl.org/dc/elements/1.1/"><sodipodi:namedview
     id="namedview1"
     pagecolor="#ffffff"
     bordercolor="#666666"
     borderopacity="1.0"
     inkscape:showpageshadow="2"
     inkscape:pageopacity="0.0"
     inkscape:pagecheckerboard="0"
     inkscape:deskcolor="#d1d1d1"
     inkscape:document-units="mm"
     inkscape:zoom="0.35299995"
     inkscape:cx="345.60912"
     inkscape:cy="443.34284"
     inkscape:window-width="1920"
     inkscape:window-height="991"
     inkscape:window-x="-9"
     inkscape:window-y="-9"
     inkscape:window-maximized="1"
     inkscape:current-layer="svg8761" /><defs
     id="defs8756"><clipPath
       clipPathUnits="userSpaceOnUse"
       id="clipPath71"><rect
         style="fill:none;fill-rule:evenodd;stroke:none;stroke-width:1;stroke-dasharray:none;stroke-opacity:1"
         id="rect71"
         width="264.58337"
         height="264.58337"
         x="-367.10941"
         y="-127.33073" /></clipPath></defs><metadata
     id="metadata8759"><rdf:RDF><cc:Work
         rdf:about=""><dc:format>image/svg+xml</dc:format><dc:type
           rdf:resource="http://purl.org/dc/dcmitype/StillImage" /></cc:Work></rdf:RDF></metadata><g
     id="g71"
     transform="translate(367.10939,127.33073)"><rect
       style="fill:none;fill-rule:evenodd;stroke:none;stroke-width:1;stroke-dasharray:none;stroke-opacity:1"
       id="rect48"
       width="264.58334"
       height="264.58334"
       x="-367.10941"
       y="-127.33073" /><g
       id="g53"
       clip-path="url(#clipPath71)"><path
         style="fill:none;stroke:#454545;stroke-width:0.591564;stroke-linecap:butt;stroke-linejoin:miter;stroke-dasharray:none;stroke-opacity:1"
         d="m -320.08568,120.31075 -6.31116,-79.2444 c -2.53072,-31.7761969 33.17008,-31.1785679 31.55583,0 l -4.09373,79.06908 c -2.9381,-3.0653 -6.34975,-1.89649 -10.57569,-4.0433 -2.46934,1.70313 -7.96451,1.78087 -10.57525,4.21862 z"
         id="path1" /><path
         style="fill:none;stroke:#454545;stroke-width:0.591564;stroke-linecap:butt;stroke-linejoin:miter;stroke-dasharray:none;stroke-opacity:1"
         d="m -253.34832,70.410083 c -29.60317,18.82791 -15.60883,75.196967 -11.82004,90.993687 3.95488,-1.72117 7.29858,-3.54605 9.16657,-7.56215 1.29677,4.08311 4.12759,6.00739 8.92533,8.30596 2.48649,-12.81397 21.1829,-67.427896 -6.27186,-91.737497 z"
         id="path2" /><path
         style="fill:none;stroke:#454545;stroke-width:0.591564;stroke-linecap:butt;stroke-linejoin:miter;stroke-dasharray:none;stroke-opacity:1"
         d="m -208.85618,98.725411 9.54493,0.04252 c 3.21751,-4.937138 8.33188,-19.865632 11.56049,-43.992931 7.91345,-59.136852 8.59951,-164.39041 -18.38337,-164.55583 -27.54601,-0.16886 -23.98085,106.144662 -15.52297,163.6524 3.67695,25.000682 11.61029,42.350684 12.80092,44.853823 z"
         id="path3" /><path
         style="fill:none;stroke:#454545;stroke-width:0.591564;stroke-linecap:butt;stroke-linejoin:miter;stroke-dasharray:none;stroke-opacity:1"
         d="m -267.50813,7.9881958 c 0,0 -10.37768,-16.5602466 -10.39987,-45.0124318 -0.0222,-28.45218 15.84753,-49.4942 15.84753,-49.4942 0,0 15.15162,21.86871 15.11381,50.0539 -0.0378,28.1851872 -11.98143,44.5766978 -11.98143,44.5766978 0,0 -2.46461,2.0230712 -4.04879,2.0400322 -1.58419,0.01697 -4.53125,-2.1639982 -4.53125,-2.1639982 z"
         id="path4" /><path
         style="fill:none;stroke:#454545;stroke-width:0.591564;stroke-linecap:butt;stroke-linejoin:miter;stroke-dasharray:none;stroke-opacity:1"
         d="m -329.38499,-60.01283 40.0434,0.247938 c 2.30203,32.079491 -11.56872,47.027315 -36.12349,56.7780783 -3.28845,1.305848 -5.81028,-0.95502 -4.79114,-3.807699 4.19112,-11.7313483 12.83544,-17.2290163 9.55464,-34.4367423 -1.12111,-5.880242 -4.3465,-12.195517 -8.68341,-18.781575 z"
         id="path5" /><path
         style="fill:none;stroke:#454545;stroke-width:0.591564;stroke-linecap:butt;stroke-linejoin:miter;stroke-dasharray:none;stroke-opacity:1"
         d="m -149.29448,44.037354 c 0,0 -9.87729,-12.102401 -10.39987,-40.5495165 -0.74586,-40.6012065 15.2823,-61.0124345 15.2823,-61.0124345 0,0 16.44053,13.055927 16.40271,60.8283085 -0.0223,28.1852095 -12.7051,40.8576085 -12.7051,40.8576085 -2.95209,-0.549649 -5.07914,-0.524975 -8.58004,-0.123966 z"
         id="path4-8" /><path
         style="fill:none;stroke:#454545;stroke-width:0.591564;stroke-linecap:butt;stroke-linejoin:miter;stroke-dasharray:none;stroke-opacity:1"
         d="m -367.16074,90.377784 c 0,0 -11.83735,-18.295816 -12.08845,-75.508937 -0.28048,-63.90685 18.17701,-73.90527 18.17701,-73.90527 0,0 16.45191,2.14699 17.60883,73.72115 0.8803,54.459705 -15.11735,75.817023 -15.11735,75.817023 -1.75809,2.95674 -6.61429,2.806091 -8.58004,-0.123966 z"
         id="path4-8-3" /><g
         id="g41"
         transform="matrix(0.42485682,0,0,0.41828097,-319.1116,-146.56103)"
         style="stroke:#454545;stroke-opacity:1"><path
           style="fill:none;stroke:#454545;stroke-width:1;stroke-linecap:butt;stroke-linejoin:miter;stroke-dasharray:none;stroke-opacity:1"
           d="m 134.02122,456.18137 c -10.05531,17.25037 -1.95412,23.65476 -5.82457,33.21117 -1.53846,3.01331 -4.1079,2.75011 -6.38817,3.40591 -0.96808,3.13838 -3.81361,2.48215 -5.98891,2.60451 -2.59417,-3.79613 -5.80997,-4.64334 -9.73198,-4.70816 -2.6515,-2.84251 -4.85053,-8.76919 -8.234754,-8.91546 -2.55446,-4.63263 -6.34167,-12.27558 -0.19962,-21.4372 4.596834,-4.01334 12.634964,-11.07541 23.180294,-12.79897 4.05873,-0.91484 4.94185,-1.34982 11.35575,-0.42395 -0.0331,0.9581 -0.0918,1.91302 -1.59705,2.68645 -5.56956,1.86821 -12.15491,1.61257 -13.5406,3.76008 0.6561,0.85182 3.98985,0.67379 8.94911,-0.63645 3.37946,1.49944 -10.11444,5.37103 -8.13849,9.52674 3.12902,-1.60488 5.81737,-4.90585 8.73739,-6.92223 2.84052,-2.82756 4.41784,-3.35011 5.19037,-2.40418 -1.14393,3.99267 -6.55386,4.55038 -8.18483,10.01738 5.22392,0.77256 6.40256,-8.5529 10.41606,-6.96564 z"
           id="path36" /><path
           style="fill:none;stroke:#454545;stroke-width:1;stroke-linecap:butt;stroke-linejoin:miter;stroke-dasharray:none;stroke-opacity:1"
           d="m 130.36763,444.58983 c -7.37774,1.24357 -8.04473,-3.9506 -22.13401,3.73147 -3.43356,3.26381 -9.971284,4.21804 -14.573014,1.40243 -4.63385,-2.64569 -5.38382,-6.85051 -4.72159,-11.62224 l -2.39452,-3.14376 c -2.03363,-3.7956 1.68376,-5.21925 2.83011,-9.80591 0.15976,-1.16566 0.20881,-2.94855 -0.33076,-3.9684 -0.25043,-3.6276 5.16625,-6.84235 10.09528,-7.85394 2.600764,-1.50838 5.542984,-2.49128 9.493754,-1.9222 5.17523,1.08699 9.74203,5.91247 11.17931,5.86015 -0.0924,-2.78128 -4.00008,-5.05995 -3.19963,-12.09723 1.44949,-3.58471 0.6842,-4.5534 5.53273,-8.31801 2.02862,1.04429 10.23905,-9.62154 13.43768,-5.78019 1.67172,2.92892 6.23589,3.04864 9.78189,4.15721 6.73087,3.24005 6.18868,9.66519 5.78928,16.02781 -0.45281,5.19259 -0.89657,10.38643 -5.39002,15.02605 l -5.19039,4.80834 c -2.54348,-4.0005 5.44277,-8.92579 2.12108,-10.4932 -3.73857,1.34118 -2.73326,8.67786 -5.91405,10.39303 -1.0311,-5.14476 2.85769,-12.08348 -0.19964,-14.72554 -2.6317,3.17087 0.72419,9.3284 -1.77172,11.97076 -1.23581,-2.31613 -1.34952,-9.01704 -3.54344,-8.06398 -1.96958,1.84526 2.98527,9.12037 1.64696,13.29806 -2.34688,-4.24134 -3.19318,-5.44525 -4.51664,-5.98538 -2.1787,0.37284 3.93607,7.53433 2.37061,9.54155 -3.32698,-3.41285 -5.91885,-10.78051 -9.95656,-9.14085 -0.72662,2.54091 6.33675,6.00579 7.18669,9.21598 -3.44944,-0.24589 -7.87072,-6.49908 -11.67837,-6.86191 1.19196,5.17823 15.39533,9.29417 14.79759,11.54503 -4.23938,0.18749 -10.78352,-4.59461 -11.45378,-2.27896 2.26799,3.03363 7.5919,1.38613 10.53049,4.20731 z"
           id="path37" /><path
           style="fill:none;stroke:#454545;stroke-width:1;stroke-linecap:butt;stroke-linejoin:miter;stroke-dasharray:none;stroke-opacity:1"
           d="m 136.78076,447.72026 c -3.71149,-4.05144 -0.50105,-8.43148 0.95533,-10.57944 10.03988,-9.70102 15.92725,-13.97315 20.85428,-21.11948 -1.42309,-1.10411 -1.51116,-2.44453 -1.68778,-3.7803 1.21772,-2.1441 2.52388,-2.60157 3.8338,-2.9875 0.005,-1.33368 -1.14528,-3.13107 0.99815,-3.60626 2.25065,-0.72898 2.97556,1.45242 4.39187,2.0632 -0.0125,-1.76246 0.49301,-2.67104 1.79668,-2.26354 3.91167,0.42717 1.56858,3.4296 2.19593,5.20903 1.13365,0.61976 3.00027,-0.0404 3.27677,3.41806 0.29707,3.08316 -3.43323,1.87244 -4.87382,1.99132 0.87618,2.25417 -1.04961,3.28155 -2.59519,3.60626 -2.42627,0.91439 -3.46636,-0.25795 -5.19039,-0.4007 -9.56485,9.75379 -14.15932,18.39907 -18.76525,27.04691 -2.06848,1.91064 -3.64422,1.71963 -5.19038,1.40244 z"
           id="path38" /><path
           style="fill:none;stroke:#454545;stroke-width:1;stroke-linecap:butt;stroke-linejoin:miter;stroke-dasharray:none;stroke-opacity:1"
           d="m 149.09833,438.25741 c -0.83436,-4.94771 14.83939,-15.35062 17.8266,-15.58059 5.42219,-0.53118 11.15255,-1.9283 14.77264,2.60451 0.79016,1.53273 1.71135,2.21345 1.69184,5.5146 1.97664,3.57717 4.97201,7.66554 4.69634,10.11251 -0.10941,3.67736 -0.85648,3.64291 -1.39742,4.80834 0.42933,3.73602 0.61203,6.30342 0.47988,7.56668 -3.52263,3.90811 -7.83317,6.07141 -10.51882,6.13786 -2.38315,1.76577 -4.99948,5.00832 -10.47454,2.33437 -5.68894,-2.70134 -11.36018,-9.46472 -18.04942,-12.99724 -0.27162,-2.68869 4.65266,-0.77414 8.73112,1.63382 1.58731,1.91055 2.93732,1.3148 3.48058,0.93424 2.68181,-4.39216 -11.37213,-3.80868 -11.1793,-5.81008 -0.0884,-2.50952 17.0075,0.25788 17.32149,-1.51979 -4.1821,-5.59403 -16.64185,0.38628 -16.92223,-1.68577 -1.12806,-2.9177 8.37573,-2.79173 10.15693,-5.32639 -1.82009,-3.98058 -9.43597,3.17151 -10.61569,1.27293 z"
           id="path39" /><path
           style="fill:none;stroke:#454545;stroke-width:1;stroke-linecap:butt;stroke-linejoin:miter;stroke-dasharray:none;stroke-opacity:1"
           d="m 143.76782,450.72546 c 3.98006,-0.21226 20.02495,12.52313 23.95563,21.83789 2.21672,5.08274 1.22766,9.33818 -1.19778,13.22293 0.0913,3.86872 -1.32191,3.96265 -2.19593,5.40938 -5.74445,1.44904 -4.62651,0.83198 -6.78743,1.20208 -1.86636,2.358 -3.71289,4.73471 -7.78558,5.00869 -4.22149,0.50691 -3.87636,-1.11946 -5.73937,-2.05355 -2.71962,-1.30016 -6.42527,-1.87626 -8.78373,-5.65982 -2.05834,-2.83141 -3.21294,-5.40705 -3.44364,-8.16417 -0.502,-5.9996 -0.81287,-11.61556 0,-14.97597 0.75314,-3.41246 1.7162,-5.88855 2.74802,-8.05795 -0.31402,-2.66401 1.10362,-4.30595 3.04127,-5.96637 2.5095,3.72336 -0.2507,10.83623 3.76801,13.62362 1.40649,-3.43508 -3.04846,-12.25788 -0.77356,-12.89736 3.41966,3.91305 4.24092,9.50578 6.10769,14.66855 -0.20762,1.10024 0.17518,2.12205 1.27863,3.03715 4.21144,-1.29436 -5.36998,-11.73818 -2.79482,-15.02606 2.6561,3.47107 5.269,7.63579 7.73818,14.10836 3.6447,-5.34099 -5.08104,-10.52969 -9.13559,-19.3174 z"
           id="path40" /></g><use
         x="0"
         y="0"
         xlink:href="#g41"
         id="use41"
         transform="matrix(-0.64519443,-0.18571724,-0.16175384,0.59365947,-301.37623,5.2678708)"
         style="stroke-width:1.55593;stroke-dasharray:none;stroke:#454545;stroke-opacity:1" /><use
         x="0"
         y="0"
         xlink:href="#g41"
         id="use41-2"
         transform="matrix(0.6001617,-0.30616645,0.26666129,0.55222372,-159.96942,-197.25894)"
         style="stroke-width:1.55593;stroke-dasharray:none;stroke:#454545;stroke-opacity:1" /><path
         style="fill:none;stroke:#454545;stroke-width:0.591564;stroke-linecap:butt;stroke-linejoin:miter;stroke-dasharray:none;stroke-opacity:1"
         d="m -102.57741,90.377784 c 0,0 -11.83735,-18.295816 -12.08845,-75.508937 -0.28048,-63.90685 18.177013,-73.90527 18.177013,-73.90527 0,0 16.45191,2.14699 17.60883,73.72115 0.8803,54.459705 -15.11735,75.817023 -15.11735,75.817023 -1.75809,2.95674 -6.614293,2.806091 -8.580043,-0.123966 z"
         id="path48" /><path
         style="fill:none;stroke:#454545;stroke-width:0.591564;stroke-linecap:butt;stroke-linejoin:miter;stroke-dasharray:none;stroke-opacity:1"
         d="m -174.91444,188.84833 -1.48666,-69.57477 c -0.6811,-31.874797 28.02091,-30.725017 27.69622,0.49587 l -0.71656,68.90357 c -2.93811,-3.0653 -8.03833,-1.64855 -12.26427,-3.79536 -2.46934,1.70313 -10.618,1.53293 -13.22873,3.97069 z"
         id="path50" /><path
         style="fill:none;stroke:#454545;stroke-width:0.591564;stroke-linecap:butt;stroke-linejoin:miter;stroke-dasharray:none;stroke-opacity:1"
         d="m -174.91444,-75.735003 -1.48666,-69.574767 c -0.6811,-31.8748 28.02091,-30.72502 27.69622,0.49587 l -0.71656,68.903567 c -2.93811,-3.0653 -8.03833,-1.64855 -12.26427,-3.79536 -2.46934,1.70313 -10.618,1.53293 -13.22873,3.97069 z"
         id="path51" /><path
         style="fill:none;stroke:#454545;stroke-width:0.591564;stroke-linecap:butt;stroke-linejoin:miter;stroke-dasharray:none;stroke-opacity:1"
         d="m -253.34832,-194.17325 c -29.60317,18.82791 -15.60883,75.19697 -11.82004,90.99369 3.95488,-1.72117 7.29858,-3.54605 9.16657,-7.56215 1.29677,4.08311 4.12759,6.00739 8.92533,8.30596 2.48649,-12.81397 21.1829,-67.4279 -6.27186,-91.7375 z"
         id="path52" /><path
         style="fill:none;stroke:#454545;stroke-width:0.591564;stroke-linecap:butt;stroke-linejoin:miter;stroke-dasharray:none;stroke-opacity:1"
         d="m -92.024831,-123.30991 -29.680589,0.13982 c -1.70629,18.09041 8.57486,26.519835 26.775109,32.018523 2.43744,0.736402 4.30665,-0.538548 3.55125,-2.147248 -3.1065,-6.615588 -9.513769,-9.715855 -7.082,-19.419715 0.83098,-3.31601 3.22167,-6.87734 6.43623,-10.59138 z"
         id="path5-1" /><path
         style="fill:none;stroke:#454545;stroke-width:0.591564;stroke-linecap:butt;stroke-linejoin:miter;stroke-dasharray:none;stroke-opacity:1"
         d="m -356.60816,-123.30991 -29.68059,0.13982 c -1.70629,18.09041 8.57486,26.519835 26.77511,32.018523 2.43744,0.736402 4.30665,-0.538548 3.55125,-2.147248 -3.1065,-6.615588 -9.51377,-9.715855 -7.082,-19.419715 0.83098,-3.31601 3.22167,-6.87734 6.43623,-10.59138 z"
         id="path53" /></g></g></svg>
